# xmcd
#
# Track frame offsets:
# 21145
# 43085
# 59835
# 75545
# 88180
# 116600
# 130670
# 140750
# 155282
# 169947
# 182862
#
# Disc length: 2612 seconds
#
#
# Revision: 2
# Processed by: cddbd v1.5PL3 Copyright (c) Steve Scherf et al.
# Submitted via: FreeRIP 2.53 
#
DISCID=a4091b0b
DTITLE=Shaver - Highway Of Life
DYEAR=1996
DGENRE=
TTITLE0=Yesterday Tomorrow Was Today
TTITLE1=West Texas Waltz
TTITLE2=Highway Of Life
TTITLE3=Tomorrow's Goodbye
TTITLE4=Blue Blue Blues
TTITLE5=Comin' On Strong
TTITLE6=You're As Young As The Woman You Feel
TTITLE7=Goodbye Yesterday
TTITLE8=Moonshine And Indian Blood
TTITLE9=Look For Me When You See Me Comin'
TTITLE10=The First And Last Time
EXTD=
EXTT0=
EXTT1=
EXTT2=
EXTT3=
EXTT4=
EXTT5=
EXTT6=
EXTT7=
EXTT8=
EXTT9=
EXTT10=
PLAYORDER=
